<svg xmlns="http://www.w3.org/2000/svg" width="1000" height="400">
  <svg viewBox="0 0 600 400" width="600" height="400">
<!--Grid-->
    <rect width="600" height="400" fill="#f4f0ea"/>
    <g stroke="#ccc" stroke-width="1">
<!--Vertical lines-->
      <line x1="100" y1="0" x2="100" y2="400"/>
      <line x1="200" y1="0" x2="200" y2="400"/>
      <line x1="300" y1="0" x2="300" y2="400"/>
      <line x1="400" y1="0" x2="400" y2="400"/>
      <line x1="500" y1="0" x2="500" y2="400"/>
      <line x1="600" y1="0" x2="600" y2="400"/>
<!--Horizontal lines-->
      <line x1="0" y1="100" x2="600" y2="100"/>
      <line x1="0" y1="200" x2="600" y2="200"/>
      <line x1="0" y1="300" x2="600" y2="300"/>
      <line x1="0" y1="400" x2="600" y2="400"/>
    </g>
<!--Red obstacle-->
    <rect x="200" y="200" width="100" height="100" fill="#e63946"/>
<!--Yellow rover-->
    <svg id="yellow_rover" x="200" y="0" fill="#ff9900" height="100px" width="100px" version="1.1" xmlns="http://www.w3.org/2000/svg" xmlns:xlink="http://www.w3.org/1999/xlink" viewBox="0 0 32 32" xml:space="preserve">
      <path d="M29,16h-2.6l1.6-4.7c0.2-0.5-0.1-1.1-0.6-1.3c-0.5-0.2-1.1,0.1-1.3,0.6L24.3,16H14v-3c0-0.3-0.1-0.5-0.3-0.7l-1.8-1.8
    C12.6,9.5,13,8.3,13,7c0-1.6-0.6-3.1-1.8-4.2c-0.4-0.4-1-0.4-1.4,0L7,5.6L3.7,2.3c-0.4-0.4-1-0.4-1.4,0s-0.4,1,0,1.4L5.6,7L2.8,9.8
    c-0.4,0.4-0.4,1,0,1.4C3.9,12.4,5.4,13,7,13c1.3,0,2.5-0.4,3.5-1.1l1.5,1.5V16H3c-0.6,0-1,0.4-1,1v4c0,0.3,0.1,0.6,0.3,0.8l3,2.6
    C5.1,24.9,5,25.4,5,26c0,2.2,1.8,4,4,4c2.2,0,3.9-1.7,4-3.9l6,0c0,2.2,1.8,3.9,4,3.9c2.2,0,4-1.8,4-4c0-0.6-0.1-1.1-0.4-1.6l3-2.6
    c0.2-0.2,0.3-0.5,0.3-0.8v-4C30,16.4,29.6,16,29,16z M9,28c-1.1,0-2-0.9-2-2s0.9-2,2-2s2,0.9,2,2S10.1,28,9,28z M23,28
    c-1.1,0-2-0.9-2-2s0.9-2,2-2s2,0.9,2,2S24.1,28,23,28z"/>
    </svg>
<!--Blue rover-->
    <svg id="blue_rover" x="300" y="300" fill="#457b9d" height="100px" width="100px" viewBox="0 0 32 32" xml:space="preserve">
      <path d="M29,16h-2.6l1.6-4.7c0.2-0.5-0.1-1.1-0.6-1.3c-0.5-0.2-1.1,0.1-1.3,0.6L24.3,16H14v-3c0-0.3-0.1-0.5-0.3-0.7l-1.8-1.8
    C12.6,9.5,13,8.3,13,7c0-1.6-0.6-3.1-1.8-4.2c-0.4-0.4-1-0.4-1.4,0L7,5.6L3.7,2.3c-0.4-0.4-1-0.4-1.4,0s-0.4,1,0,1.4L5.6,7L2.8,9.8
    c-0.4,0.4-0.4,1,0,1.4C3.9,12.4,5.4,13,7,13c1.3,0,2.5-0.4,3.5-1.1l1.5,1.5V16H3c-0.6,0-1,0.4-1,1v4c0,0.3,0.1,0.6,0.3,0.8l3,2.6
    C5.1,24.9,5,25.4,5,26c0,2.2,1.8,4,4,4c2.2,0,3.9-1.7,4-3.9l6,0c0,2.2,1.8,3.9,4,3.9c2.2,0,4-1.8,4-4c0-0.6-0.1-1.1-0.4-1.6l3-2.6
    c0.2-0.2,0.3-0.5,0.3-0.8v-4C30,16.4,29.6,16,29,16z M9,28c-1.1,0-2-0.9-2-2s0.9-2,2-2s2,0.9,2,2S10.1,28,9,28z M23,28
    c-1.1,0-2-0.9-2-2s0.9-2,2-2s2,0.9,2,2S24.1,28,23,28z"/>
    </svg>
<!--Samples-->
    <svg xmlns="http://www.w3.org/2000/svg" x="80" y="300" width="20px" height="20px" viewBox="0 0 24 24">
      <path d="M11.5757 1.42426C11.81 1.18995 12.1899 1.18995 12.4243 1.42426L22.5757 11.5757C22.81 11.81 22.8101 12.1899 22.5757 12.4243L12.4243 22.5757C12.19 22.81 11.8101 22.8101 11.5757 22.5757L1.42426 12.4243C1.18995 12.19 1.18995 11.8101 1.42426 11.5757L11.5757 1.42426Z" stroke="currentColor" stroke-width="1.5" fill="#be4bdb" stroke-linecap="round" stroke-linejoin="round"/>
    </svg>
    <svg x="180" y="100" fill="#000000" width="20px" height="20px" viewBox="0 0 24 24" id="wave" data-name="Line Color" xmlns="http://www.w3.org/2000/svg" class="icon line-color">
      <path id="secondary" d="M21,11c-2.25,0-2.25,2-4.5,2S14.25,11,12,11,9.75,13,7.5,13,5.25,11,3,11" style="fill: none; stroke: rgb(44, 169, 188); stroke-linecap: round; stroke-linejoin: round; stroke-width: 2;"/>
      <path id="primary" d="M3,5C5.25,5,5.25,7,7.5,7S9.75,5,12,5s2.26,2,4.51,2S18.75,5,21,5" style="fill: none; stroke: rgb(0, 0, 0); stroke-linecap: round; stroke-linejoin: round; stroke-width: 2;"/>
      <path id="primary-2" data-name="primary" d="M21,17c-2.25,0-2.25,2-4.5,2S14.25,17,12,17,9.75,19,7.5,19,5.25,17,3,17" style="fill: none; stroke: rgb(0, 0, 0); stroke-linecap: round; stroke-linejoin: round; stroke-width: 2;"/>
    </svg>
    <svg x="580" y="100" fill="#008000" width="20px" height="20px" viewBox="0 0 14 14" role="img" focusable="false" aria-hidden="true" xmlns="http://www.w3.org/2000/svg">
      <path d="m 9.2375,10.433335 c -0.9041667,0.45 -1.9145833,0.71666 -2.9333333,0.71666 -1.7125,0 -3.1479167,-0.83541 -3.1479167,-0.83541 -0.3354167,0 -0.7375,1.35208 -1.31875,1.35208 -0.5625,0 -0.8375,-0.5 -0.8375,-0.80208 0,-0.68959 1.325,-1.22709 1.325,-1.61042 0,0 -0.2604167,-0.44167 -0.2604167,-1.23333 0,-2.10834 1.69375,-3.6125 3.5958334,-4.23542 1.3729166,-0.45 4.2916666,0.0729 5.2229163,-0.80208 0.36875,-0.3375 0.55,-0.65 1.1125,-0.65 0.75625,0 1.004167,1.94166 1.004167,2.50625 0,2.31041 -1.135417,4.30208 -3.7625,5.59375 z m -5.2979167,-1.575 c 1.3229167,-1.87292 3.0104167,-2.68334 5.36875,-2.5 0.1833334,0.0146 0.34375,-0.12292 0.3583334,-0.30625 0.014583,-0.18334 -0.1229167,-0.34375 -0.30625,-0.35834 -2.5833334,-0.2 -4.4979167,0.70625 -5.9645834,2.78125 -0.10625,0.15 -0.070833,0.35834 0.079167,0.46459 0.15,0.10625 0.3583333,0.0708 0.4645833,-0.0813 z"/>
    </svg>
    <svg x="480" y="200" fill="#895129" width="20px" height="20px" viewBox="0 0 24 24" xmlns="http://www.w3.org/2000/svg">
      <path d="M12 11.8c1-.4.7-1.8 0-2.4-1.1-.9-2.7-.4-3.4.8-1.5 2.4.9 5 3.4 4.9 2.7-.2 4.3-2.9 3.7-5.4-.7-3-3.9-4.5-6.7-3.6-2.6.8-4.2 3.5-4 6.2.3 3 2.6 5.4 5.5 5.9 2.8.5 5.7-.8 7.2-3.2.7-1.1 1.2-2.4 1.2-3.8 0-.5.5-1 1.1-.9.8 0 1 .8.9 1.4-.4 4.7-4.5 8.6-9.3 8.6-5.9 0-10.5-6.2-8-11.8 2.5-5.4 10.3-6.5 13.3-1.2 1.5 2.5 1.2 5.8-.9 7.9-2 2-5.3 2.4-7.7.7-2.2-1.6-2.9-4.9-1.1-7.2 1.7-2.3 5.5-2.4 7 .2 1.1 1.9 0 5.2-2.5 4.9-1.6 0-3-1.7-2.1-3.2.6-.9 1.9-.6 2.3.1.2.8.1 1.1.1 1.1z"/>
    </svg>
<!--Lab-->
    <svg x="580" y="380" fill="#800000" width="20px" height="20px" viewBox="-1 0 19 19" xmlns="http://www.w3.org/2000/svg" class="cf-icon-svg">
      <path d="M13.27 14.91a.554.554 0 0 1-.392-.946 6.201 6.201 0 1 0-8.763 0 .554.554 0 1 1-.784.784 7.31 7.31 0 1 1 10.331 0 .55.55 0 0 1-.392.162zm-2.16-2.159a.554.554 0 0 1-.392-.946 3.142 3.142 0 1 0-4.444 0 .554.554 0 0 1-.783.784 4.25 4.25 0 1 1 6.011 0 .553.553 0 0 1-.391.162zm-1.117 3.32H9.05V10.99a1.511 1.511 0 1 0-1.108 0v5.081H7a.554.554 0 0 0 0 1.109h2.993a.554.554 0 0 0 0-1.109z"/>
    </svg>
    <svg x="500" y="380" fill="#800000" width="20px" height="20px" viewBox="0 0 32 32" version="1.1" xmlns="http://www.w3.org/2000/svg">
      <path d="M19.332 19.041c0 0-1.664 2.125-3.79 0-2.062-2-3.562 0-3.562 0l-4.967 9.79c-0.144 0.533 0.173 1.081 0.706 1.224h16.497c0.533-0.143 0.85-0.69 0.707-1.224l-5.591-9.79zM26.939 28.33l-7.979-13.428v-0.025l-0.014-7.869h0.551c0.826 0 1.498-0.671 1.498-1.499 0-0.827-0.672-1.498-1.498-1.498h-7.995c-0.827 0-1.498 0.671-1.498 1.498 0 0.828 0.671 1.499 1.498 1.499h0.482l-0.016 7.871-6.908 13.451c-0.428 1.599 0.521 3.242 2.119 3.67h17.641c1.6-0.428 2.549-2.071 2.119-3.67zM24.553 30.998l-17.108-0.019c-1.065-0.286-1.697-1.382-1.412-2.446l6.947-13.616 0.021-8.908h-1.498c-0.275 0-0.499-0.224-0.499-0.5s0.224-0.499 0.499-0.499h7.995c0.275 0 0.498 0.224 0.498 0.499 0 0.276-0.223 0.5-0.498 0.5h-1.498l0.025 8.875 7.939 13.666c0.286 1.067-0.347 2.163-1.411 2.448zM16.48 2.512c0 0.552 0.448 1 1 1s1-0.448 1-1-0.447-1-1-1-1 0.447-1 1zM17.48 0.012c0.828 0 1.5-0.671 1.5-1.5s-0.672-1.5-1.5-1.5-1.5 0.671-1.5 1.5 0.672 1.5 1.5 1.5zM13.48 2.512c0.553 0 1-0.448 1-1s-0.447-1-1-1-1 0.448-1 1 0.447 1 1 1z"/>
    </svg>
<!--Charge Stations-->
    <svg x="280" y="0" fill="#539fec" width="20px" height="20px" viewBox="0 0 50 50" version="1.2" baseProfile="tiny" xmlns="http://www.w3.org/2000/svg" overflow="inherit">
      <path d="M41 14h-5v-11.081c0-1.06-.895-1.919-2-1.919s-2 .859-2 1.919v11.081h-16v-11.081c0-1.06-.895-1.919-2.001-1.919-1.105 0-1.999.859-1.999 1.919v11.081h-5c-.553 0-1 .869-1 1.399v4.801c0 5.759 10 12.446 10 21.696v3.104h4v4h8v-4h4v-3.104c0-9.25 10-15.938 10-21.696v-4.801c0-.53-.447-1.399-1-1.399m-18.093 16.388c.065-.21-.067-.388-.296-.388h-3.885c-.23 0-.295-.13-.149-.299 0 0 8.005-10.159 8.161-10.355.118-.186.248-.121.207.093-.062.271-1.771 7.202-1.771 7.202-.083.204.037.359.264.359h3.887c.229 0 .302.154.162.328 0 0-8.017 10.402-8.161 10.576-.145.174-.279.121-.206-.175.073-.297 1.787-7.341 1.787-7.341"/>
    </svg>
    <svg x="380" y="300" fill="#539fec" width="20px" height="20px" viewBox="0 0 50 50" version="1.2" baseProfile="tiny" xmlns="http://www.w3.org/2000/svg" overflow="inherit">
      <path d="M41 14h-5v-11.081c0-1.06-.895-1.919-2-1.919s-2 .859-2 1.919v11.081h-16v-11.081c0-1.06-.895-1.919-2.001-1.919-1.105 0-1.999.859-1.999 1.919v11.081h-5c-.553 0-1 .869-1 1.399v4.801c0 5.759 10 12.446 10 21.696v3.104h4v4h8v-4h4v-3.104c0-9.25 10-15.938 10-21.696v-4.801c0-.53-.447-1.399-1-1.399m-18.093 16.388c.065-.21-.067-.388-.296-.388h-3.885c-.23 0-.295-.13-.149-.299 0 0 8.005-10.159 8.161-10.355.118-.186.248-.121.207.093-.062.271-1.771 7.202-1.771 7.202-.083.204.037.359.264.359h3.887c.229 0 .302.154.162.328 0 0-8.017 10.402-8.161 10.576-.145.174-.279.121-.206-.175.073-.297 1.787-7.341 1.787-7.341"/>
    </svg>
  </svg>
  <svg x="600" y="0" width="400" height="300" style="font-family: Arial, sans-serif; font-size: 12px;">
<!--Blue Rover-->
    <rect x="10" y="10" width="380" height="120" fill="white" stroke="black" stroke-width="1"/>
    <text x="20" y="30" font-weight="bold">Blue Rover</text>
    <text x="20" y="50">Energy</text>
    <svg x="80" y="38" width="160" height="20" fill="none" stroke="#000000" stroke-width="2" stroke-linecap="round" stroke-linejoin="round">
      <rect x="0" y="0" width="160" height="20" rx="2" ry="2"/>
      <line x1="160" x2="160" y1="5" y2="15"/>
    </svg>
    <!--Battery Blue-->
    <rect id="blue-cell-1" x="82" y="40" width="18" height="16" fill="blue"/>
    <rect id="blue-cell-2" x="102" y="40" width="18" height="16" fill="blue"/>
    <rect id="blue-cell-3" x="122" y="40" width="18" height="16" fill="lightgray"/>
    <rect id="blue-cell-4" x="142" y="40" width="18" height="16" fill="lightgray"/>
    <rect id="blue-cell-5" x="162" y="40" width="18" height="16" fill="lightgray"/>
    <rect id="blue-cell-6" x="182" y="40" width="18" height="16" fill="lightgray"/>
    <rect id="blue-cell-7" x="202" y="40" width="18" height="16" fill="lightgray"/>
    <rect id="blue-cell-8" x="222" y="40" width="18" height="16" fill="lightgray"/>
    <!--Positions-->
    <text x="20" y="80">Position</text>
    <text x="80" y="80">x:</text>
    <text id="x-axis-ry" x="100" y="80">4</text>
    <text x="120" y="80">y:</text>
    <text id="y-axis-ry" x="140" y="80">4</text>
    <!--Collections-->
    <text x="20" y="100">Sample collection</text>
    <text x="80" y="120">◆</text>
    <text x="100" y="120">0</text>
    <circle cx="120" cy="117" r="6" fill="brown"/>
    <text x="135" y="120">0</text>
    <rect x="150" y="112" width="12" height="12" fill="lightblue"/>
    <text x="170" y="120">0</text>
    <circle cx="190" cy="117" r="6" fill="green"/>
    <text x="205" y="120">0</text>
<!--Yellow Rover-->
    <rect x="10" y="140" width="380" height="120" fill="white" stroke="black" stroke-width="1"/>
    <text x="20" y="160" font-weight="bold">Yellow Rover</text>
    <text x="20" y="180">Energy</text>
    <svg x="80" y="168" width="160" height="20" fill="none" stroke="#000000" stroke-width="2" stroke-linecap="round" stroke-linejoin="round">
      <rect x="0" y="0" width="160" height="20" rx="2" ry="2"/>
      <line x1="160" x2="160" y1="5" y2="15"/>
    </svg>
    <!--Battery Yellow-->
    <rect id="yellow-cell-1" x="82" y="170" width="18" height="16" fill="yellow"/>
    <rect id="yellow-cell-2" x="102" y="170" width="18" height="16" fill="yellow"/>
    <rect id="yellow-cell-3" x="122" y="170" width="18" height="16" fill="yellow"/>
    <rect id="yellow-cell-4" x="142" y="170" width="18" height="16" fill="yellow"/>
    <rect id="yellow-cell-5" x="162" y="170" width="18" height="16" fill="lightgray"/>
    <rect id="yellow-cell-6" x="182" y="170" width="18" height="16" fill="lightgray"/>
    <rect id="yellow-cell-7" x="202" y="170" width="18" height="16" fill="lightgray"/>
    <rect id="yellow-cell-8" x="222" y="170" width="18" height="16" fill="lightgray"/>
    <!--Positions-->
    <text x="20" y="210">Position</text>
    <text x="80" y="210">x:</text>
    <text id="x-axis-rb" x="100" y="210">4</text>
    <text x="120" y="210">y:</text>
    <text id="y-axis-rb" x="140" y="210">4</text>
    <!--Collections-->
    <text x="20" y="230">Sample collection</text>
    <text x="80" y="250">◆</text>
    <text x="100" y="250">0</text>
    <circle cx="120" cy="247" r="6" fill="brown"/>
    <text x="135" y="250">2</text>
    <rect x="150" y="242" width="12" height="12" fill="lightblue"/>
    <text x="170" y="250">0</text>
    <circle cx="190" cy="247" r="6" fill="green"/>
    <text x="205" y="250">0</text>
  </svg>
</svg>
